<svg xmlns="http://www.w3.org/2000/svg" version="1.1" xmlns:xlink="http://www.w3.org/1999/xlink" width="200" height="200"><svg xmlns="http://www.w3.org/2000/svg" version="1.1" xmlns:xlink="http://www.w3.org/1999/xlink" viewBox="0 0 200 200"><rect width="200" height="200" fill="url('#gradient')"></rect><defs><linearGradient id="SvgjsLinearGradient1001" gradientTransform="rotate(45 0.5 0.5)"><stop offset="0%" stop-color="#7f7a66"></stop><stop offset="100%" stop-color="#3e3433"></stop></linearGradient></defs><g><g fill="#bfb57c" transform="matrix(7.076710435383553,0,0,7.076710435383553,-4.0954423485003275,149.609457395286)" stroke="#cbc8a0" stroke-width="0.2"><path d="M9.56-14.22L9.56-5.56L11.01-5.56L11.01-3.02L9.56-3.02L9.56 0L6.27 0L6.27-3.02L0.77-3.02L0.58-5.03L6.27-14.19L6.27-14.22L9.56-14.22ZM6.06-9.60L3.71-5.56L6.27-5.56L6.27-9.93L6.06-9.60ZM21.75 0L18.46 0Q18.28-0.32 18.14-0.95L18.14-0.95Q17.24 0.20 15.61 0.20L15.61 0.20Q14.11 0.20 13.07-0.71Q12.02-1.61 12.02-2.98L12.02-2.98Q12.02-4.70 13.29-5.58Q14.56-6.46 16.98-6.46L16.98-6.46L18.00-6.46L18.00-7.01Q18.00-8.47 16.74-8.47L16.74-8.47Q15.57-8.47 15.57-7.31L15.57-7.31L12.28-7.31Q12.28-8.85 13.58-9.80Q14.88-10.76 16.90-10.76Q18.93-10.76 20.10-9.78Q21.27-8.79 21.30-7.07L21.30-7.07L21.30-2.39Q21.32-0.94 21.75-0.17L21.75-0.17L21.75 0ZM16.40-2.15L16.40-2.15Q17.01-2.15 17.42-2.41Q17.82-2.68 18.00-3.01L18.00-3.01L18.00-4.70L17.04-4.70Q15.32-4.70 15.32-3.15L15.32-3.15Q15.32-2.71 15.63-2.43Q15.93-2.15 16.40-2.15ZM23.66-13.19L26.95-13.19L26.95-10.57L28.69-10.57L28.69-8.28L26.95-8.28L26.95-3.45Q26.95-2.85 27.17-2.62Q27.38-2.38 28.02-2.38L28.02-2.38Q28.51-2.38 28.84-2.44L28.84-2.44L28.84-0.09Q27.95 0.20 26.98 0.20L26.98 0.20Q25.28 0.20 24.47-0.61Q23.66-1.41 23.66-3.04L23.66-3.04L23.66-8.28L22.31-8.28L22.31-10.57L23.66-10.57L23.66-13.19Z"></path></g></g></svg><style>@media (prefers-color-scheme: light) { :root { filter: none; } }
@media (prefers-color-scheme: dark) { :root { filter: none; } }
</style></svg>